<svg width="164" height="156" viewBox="0 0 164 156" fill="none" xmlns="http://www.w3.org/2000/svg">
<path d="M82 70.7367C72.3396 70.7367 64.0654 67.27 57.1774 60.3367C50.2894 53.4034 46.8493 45.0787 46.8571 35.3626C46.865 25.6465 50.305 17.314 57.1774 10.3649C64.0498 3.41589 72.324 -0.0389729 82 0.000331591C91.676 0.0396361 99.9502 3.49843 106.823 10.3767C113.695 17.255 117.135 25.5876 117.143 35.3744C117.151 45.1612 113.711 53.4859 106.823 60.3485C99.9346 67.2111 91.6604 70.6659 82 70.7367ZM0 156V136.591C0 131.726 1.40572 127.174 4.21714 122.937C7.03638 118.692 10.824 115.398 15.58 113.056C26.6383 107.718 37.7044 103.717 48.7783 101.052C59.8444 98.3796 70.9183 97.0432 82 97.0432C93.0817 97.0432 104.16 98.3796 115.233 101.052C126.307 103.725 137.366 107.726 148.408 113.056C153.172 115.398 156.96 118.692 159.771 122.937C162.59 127.174 164 131.726 164 136.591V156H0ZM11.7143 144.209H152.286V136.591C152.286 133.982 151.446 131.525 149.767 129.222C148.096 126.926 145.78 124.985 142.821 123.397C133.184 118.696 123.242 115.096 112.996 112.596C102.75 110.096 92.4179 108.842 82 108.835C71.5821 108.827 61.2501 110.077 51.004 112.584C40.7579 115.092 30.8164 118.692 21.1794 123.385C18.2118 124.973 15.8963 126.915 14.2329 129.21C12.5538 131.513 11.7143 133.974 11.7143 136.591V144.209ZM82 58.9571C88.4429 58.9571 93.9603 56.646 98.5523 52.0238C103.144 47.4016 105.436 41.8439 105.429 35.3508C105.421 28.8577 103.129 23.3079 98.5523 18.7014C93.9759 14.0949 88.4585 11.7838 82 11.7681C75.5415 11.7524 70.028 14.0635 65.4594 18.7014C60.8909 23.3394 58.5949 28.8892 58.5714 35.3508C58.548 41.8125 60.844 47.3662 65.4594 52.012C70.0749 56.6578 75.5884 58.965 82 58.9335" fill="black"/>
</svg>
