<svg xmlns="http://www.w3.org/2000/svg" viewBox="0 0 72 72"><defs><style>.cls-1{fill:#fff;}</style></defs><g id="Layer_2" data-name="Layer 2"><g id="Layer_1-2" data-name="Layer 1"><path class="cls-1" d="M36.22,34.51a8.91,8.91,0,1,1,8.91-8.91A8.92,8.92,0,0,1,36.22,34.51Zm0-15.15a6.25,6.25,0,1,0,6.25,6.24A6.25,6.25,0,0,0,36.22,19.36Z"/><path class="cls-1" d="M36,72A36,36,0,1,1,72,36,36,36,0,0,1,36,72ZM36,2.66A33.34,33.34,0,1,0,69.34,36,33.38,33.38,0,0,0,36,2.66Z"/><path class="cls-1" d="M53,54.59H50.33V48c0-4.23-4.25-4.7-4.73-4.74h0c-.1,0-10.63-.22-16.91,0a6.16,6.16,0,0,0-6.12,4.69v6.21H19.91l0-6.58a8.8,8.8,0,0,1,8.67-7c6.37-.23,17,0,17.13,0,2.55.18,7.26,2,7.26,7.39Z"/></g></g></svg>