<svg xmlns="http://www.w3.org/2000/svg" viewBox="0 0 184.9 184.9"><defs><style>.cls-1{fill:#086cc5;}.cls-2,.cls-3{fill:#fff;}.cls-3{font-size:27px;font-family:MyriadPro-Regular, Myriad Pro;}</style></defs><g id="Layer_2" data-name="Layer 2"><g id="Layer_1-2" data-name="Layer 1"><rect class="cls-1" width="184.9" height="184.9"/><path class="cls-2" d="M123.82,59.76a30,30,0,1,0,30.17,30A29.86,29.86,0,0,0,123.82,59.76Zm15.73,39c0,2.83-2.62,4.84-6,5-3.6.23-6.66-1.64-7.23-4.41-.63-3,2.38-6.25,6.27-5.85,3.4.36,3.52-1.07,3.37-3.63-.18-3.07-.1-6.16,0-9.24,0-1.45-.46-1.82-1.86-1.64-5.15.65-10.31,1.31-15.48,1.78-1.9.18-1.87,1.23-1.86,2.59,0,5.41,0,10.83,0,16.24,0,5.69-4.84,8.7-10,6.27a4.91,4.91,0,0,1-3.23-4.36c-.07-2.26,1.28-3.74,3.24-4.67a9.16,9.16,0,0,1,6.47-.29c0-6.83.09-13.4-.06-20,0-2.08.42-3,2.62-3.2,7.39-.73,14.76-1.62,22.13-2.55,1.34-.17,1.66.22,1.65,1.45C139.58,81.1,139.66,89.91,139.55,98.72Z"/><path class="cls-2" d="M88.82,77.42c0-2.2-.72-2.59-2.7-2.57-3.71,0-7.3,1.3-10.78,1.62-9.57.9-19.28.27-28.93.35-1.85,0-2.33-.62-2.3-2.39.09-5.93.1-11.87,0-17.81,0-1.88.65-2.35,2.39-2.3,3.6.11,7.21,0,10.82,0,1.43,0,2-.3,2.06-1.9s-.72-1.86-2.09-1.85c-7.32.05-14.64.1-22,0-2.07,0-2.44.65-2.41,2.53.09,8.38,0,16.75,0,25.14,0,8.59,0,17.18,0,25.77,0,2,.34,2.76,2.59,2.74q25.29-.15,50.59,0c2,0,2.75-.42,2.71-2.61Q88.62,90.78,88.82,77.42ZM38.5,54.35c1.48,0,3.6-.45,3.52,1.92s-2.23,1.55-3.57,1.78c-1.54-.16-3.69.5-3.61-1.91S37,54.35,38.5,54.35Zm0,48.6c-1.51,0-3.59.42-3.61-1.88s2.11-1.73,3.64-1.88c1.37.2,3.54-.62,3.55,1.83S40,103,38.45,103Zm0-26.15c1.4.24,3.64-.62,3.55,1.89s-2.25,1.73-3.71,1.76-3.38.44-3.43-1.73C34.8,76.21,37,77,38.45,76.8Zm-3.59-5.51c0-2.66,2.24-1.8,3.69-2C40,69.4,42,68.86,42,71c0,2.57-2.19,2-3.77,2S34.89,73.35,34.86,71.29ZM38.43,84.2c1.5,0,3.58-.43,3.59,1.89s-2.15,1.64-3.53,1.85c-1.51-.17-3.65.54-3.65-1.85S36.92,84.2,38.43,84.2ZM42,93.5c.07,2.39-2,1.93-3.5,1.93s-3.59.51-3.66-1.8,2-1.89,3.58-2C39.85,91.8,42,91.16,42,93.5Zm-2-28c-.62,0-1.26,0-1.89,0-1.44,0-3.3.32-3.35-1.8s1.72-2,3.23-2c.73,0,1.48,0,2.2.05,1,.13,1.81.66,1.82,1.81C42.09,64.92,41.3,65.49,40.07,65.52ZM74.53,103c-4.55-.16-9.11,0-13.67,0s-9.12-.11-13.68,0c-2.24.08-3.2-.33-3.1-2.89.2-5.61.13-11.24,0-16.86,0-2,.37-2.78,2.6-2.75q14.16.2,28.3,0c2.24,0,2.64.78,2.6,2.76-.11,5.61-.18,11.24,0,16.85C77.73,102.66,76.78,103.07,74.53,103Zm8.71,0c-1.51,0-3.58.41-3.56-1.93s2.18-1.6,3.56-1.82c1.51.15,3.64-.54,3.61,1.88S84.75,103,83.24,102.94Zm-3.56-9.42c.07-2.36,2.15-1.81,3.63-1.83s3.59-.41,3.53,1.93-2.16,1.72-3.67,1.84C81.72,95.33,79.62,95.93,79.68,93.52Zm7.18-7.31c-.13,2.34-2.29,1.52-3.65,1.74-1.53-.18-3.69.5-3.52-2,.15-2.29,2.24-1.73,3.71-1.77S87,83.9,86.86,86.21Zm-1.65-5.8c-.62.08-1.26.07-2.1.11a15.81,15.81,0,0,1-2-.16c-1.1-.22-1.76-1-1.42-2.07.74-2.36,2.81-1.25,4.34-1.44,1.28-.15,2.71-.11,2.88,1.65A1.68,1.68,0,0,1,85.21,80.41Z"/><path class="cls-2" d="M98.37,68.65c-1.05,3-2.79,3.86-5.62,3.81-9.33-.18-18.68-.14-28,0-2.22,0-2.87-.55-2.85-2.81q.16-17.82,0-35.66c0-2.18.5-2.87,2.79-2.86q27.21.15,54.44,0c2,0,2.77.32,2.72,2.54-.16,7-.12,14,0,21,0,1.77-.51,2.43-2.28,2.52-2.12.12-1.47-1.36-1.48-2.35,0-5.83-.11-11.67,0-17.51.05-2-.5-2.46-2.46-2.45q-23.72.14-47.44,0c-1.86,0-2.55.34-2.53,2.4q.18,14.49,0,29c0,2.06.68,2.42,2.54,2.4C78.15,68.61,88.13,68.65,98.37,68.65Z"/><path class="cls-2" d="M73.16,64.41c3.79-3.74,7-6.71,9.92-9.87,1.15-1.23,2-1,3.27-.38C92,56.88,92,56.85,95.5,51.62l3.87-5.82c2.95,4.89,5.66,9.38,8.34,13.89.23.38.85,1,.16,1.32-1.94,1-3.39,3.28-5.63,3.32C92.86,64.51,83.47,64.41,73.16,64.41Z"/><path class="cls-2" d="M84.41,44.87a5.58,5.58,0,1,1-5.51-5.72A5.5,5.5,0,0,1,84.41,44.87Z"/><text class="cls-3" transform="translate(33.43 151.62)">NO MEDIA</text></g></g></svg>