<svg width="28" height="56" viewBox="0 0 28 56" fill="none" xmlns="http://www.w3.org/2000/svg">
<path d="M13.1645 53.9992C13.1645 54.6896 13.7242 55.2492 14.4145 55.2492C15.1049 55.2492 15.6645 54.6896 15.6645 53.9992L13.1645 53.9992ZM13.1646 23.3174L13.1645 53.9992L15.6645 53.9992L15.6646 23.3174L13.1646 23.3174Z" fill="#080806"/>
<circle cx="13.97" cy="13.0549" r="13.0549" fill="#FFD75E"/>
<circle cx="19.904" cy="8.90063" r="2.96703" fill="#FFE899"/>
<mask id="mask0_54_422" style="mask-type:alpha" maskUnits="userSpaceOnUse" x="0" y="0" width="28" height="27">
<circle cx="13.97" cy="13.0549" r="13.0549" fill="#FFD75E"/>
</mask>
<g mask="url(#mask0_54_422)">
<path d="M7.32178 10.7108C4.73186 9.97336 1.39628 12.7834 0.0522318 14.2806L-0.112072 16.2012L4.85479 24.0421L18.5724 26.5054L27.1314 23.3684L29.1603 15.1586C28.7943 14.2675 28.3393 13.6739 26.1973 14.9051C23.7559 16.3084 19.3117 17.8629 16.678 17.6375C14.0443 17.4122 10.5592 11.6327 7.32178 10.7108Z" fill="#60DDCD"/>
</g>
<mask id="mask1_54_422" style="mask-type:alpha" maskUnits="userSpaceOnUse" x="0" y="0" width="28" height="27">
<circle cx="13.97" cy="13.0549" r="13.0549" fill="#FFD75E"/>
</mask>
<g mask="url(#mask1_54_422)">
<path d="M6.66684 13.1118C4.02348 12.5977 0.939566 15.6819 -0.271973 17.2882V19.2158L5.34516 26.6048L19.2228 27.8899L27.4833 24.0347L28.805 15.6819C28.3644 14.8252 27.8604 14.2726 25.8312 15.6819C23.5182 17.2882 19.2228 19.2158 16.5794 19.2158C13.9361 19.2158 9.97104 13.7543 6.66684 13.1118Z" fill="#27BBFB"/>
</g>
<mask id="mask2_54_422" style="mask-type:alpha" maskUnits="userSpaceOnUse" x="0" y="0" width="28" height="27">
<circle cx="13.97" cy="13.0549" r="13.0549" fill="#FFD75E"/>
</mask>
<g mask="url(#mask2_54_422)">
<path d="M6.55257 16.6151C4.17895 16.1404 2.29983 18.3953 1.21191 19.8788V21.6591L6.25587 28.4832L18.7174 29.67L26.135 26.1096L27.3218 18.3953C26.9262 17.6041 26.4737 17.0938 24.6515 18.3953C22.5746 19.8788 18.7174 21.9558 16.3438 21.6591C13.9702 21.3624 9.51961 17.2085 6.55257 16.6151Z" fill="#186CE0"/>
</g>
</svg>
