<svg width="77" height="76" viewBox="0 0 77 76" fill="none" xmlns="http://www.w3.org/2000/svg">
<path d="M38.4583 75.5837C17.677 75.5837 0.875 58.7817 0.875 38.0003C0.875 17.219 17.677 0.416992 38.4583 0.416992C59.2397 0.416992 76.0417 17.219 76.0417 38.0003C76.0417 58.7817 59.2397 75.5837 38.4583 75.5837ZM38.4583 4.83856C20.1088 4.83856 5.29657 19.6508 5.29657 38.0003C5.29657 56.3498 20.1088 71.1621 38.4583 71.1621C56.8078 71.1621 71.6201 56.3498 71.6201 38.0003C71.6201 19.6508 56.8078 4.83856 38.4583 4.83856Z" fill="white"/>
<path d="M27.4043 57.2323V18.7646L60.5661 37.9985L27.4043 57.2323ZM31.8259 26.2813V49.4946L51.7229 37.7774L31.8259 26.2813Z" fill="white"/>
</svg>
