<svg width="176" height="176" viewBox="0 0 176 176" fill="none" xmlns="http://www.w3.org/2000/svg">
<path d="M56 112H112V96H56V112ZM32 80H112V64H32V80ZM32 48H112V32H32V48ZM160 32V160H32V176H160C164.243 176 168.313 174.314 171.314 171.314C174.314 168.313 176 164.243 176 160V32H160ZM16 0C11.7565 0 7.68688 1.68571 4.68629 4.68629C1.68571 7.68687 0 11.7565 0 16V128C0 136.88 7.12 144 16 144H128C132.243 144 136.313 142.314 139.314 139.314C142.314 136.313 144 132.243 144 128V16C144 7.12 136.88 0 128 0H16ZM128 16V128H16V16H128Z" fill="black"/>
</svg>
