<svg width="63" height="63" viewBox="0 0 63 63" fill="none" xmlns="http://www.w3.org/2000/svg">
<circle cx="31.5" cy="31.5" r="31" fill="white" stroke="#B6B6B6"/>
<path d="M31.5 18.8438C33.1783 18.8438 34.7879 19.5105 35.9747 20.6972C37.1614 21.884 37.8281 23.4936 37.8281 25.1719C37.8281 26.8502 37.1614 28.4598 35.9747 29.6465C34.7879 30.8333 33.1783 31.5 31.5 31.5C29.8217 31.5 28.2121 30.8333 27.0253 29.6465C25.8386 28.4598 25.1719 26.8502 25.1719 25.1719C25.1719 23.4936 25.8386 21.884 27.0253 20.6972C28.2121 19.5105 29.8217 18.8438 31.5 18.8438ZM31.5 34.6641C38.4926 34.6641 44.1562 37.4959 44.1562 40.9922V44.1562H18.8438V40.9922C18.8438 37.4959 24.5074 34.6641 31.5 34.6641Z" fill="#007FFF"/>
</svg>
